<?xml version="1.0" encoding="UTF-8" standalone="no"?>
<!-- Created with Inkscape (http://www.inkscape.org/) -->

<svg
   xmlns:dc="http://purl.org/dc/elements/1.1/"
   xmlns:cc="http://creativecommons.org/ns#"
   xmlns:rdf="http://www.w3.org/1999/02/22-rdf-syntax-ns#"
   xmlns:svg="http://www.w3.org/2000/svg"
   xmlns="http://www.w3.org/2000/svg"
   xmlns:sodipodi="http://sodipodi.sourceforge.net/DTD/sodipodi-0.dtd"
   xmlns:inkscape="http://www.inkscape.org/namespaces/inkscape"
   id="svg3074"
   version="1.1"
   inkscape:version="0.48.3.1 r9886"
   width="50"
   height="45"
   sodipodi:docname="crate_link.svg">
  <metadata
     id="metadata3080">
    <rdf:RDF>
      <cc:Work
         rdf:about="">
        <dc:format>image/svg+xml</dc:format>
        <dc:type
           rdf:resource="http://purl.org/dc/dcmitype/StillImage" />
        <dc:title></dc:title>
      </cc:Work>
    </rdf:RDF>
  </metadata>
  <defs
     id="defs3078" />
  <sodipodi:namedview
     pagecolor="#ffffff"
     bordercolor="#666666"
     borderopacity="1"
     objecttolerance="10"
     gridtolerance="10"
     guidetolerance="10"
     inkscape:pageopacity="0"
     inkscape:pageshadow="2"
     inkscape:window-width="868"
     inkscape:window-height="672"
     id="namedview3076"
     showgrid="false"
     inkscape:zoom="5.8"
     inkscape:cx="25"
     inkscape:cy="23.362069"
     inkscape:window-x="0"
     inkscape:window-y="24"
     inkscape:window-maximized="0"
     inkscape:current-layer="svg3074" />
  <path
     style="fill:#0000ff;stroke:#00097d;stroke-opacity:1"
     id="path3049"
     d="m 6.689793,32.904114 c -0.080201,0.08417 -0.1604014,0.168351 -0.2406021,0.252526 -0.021297,0.02223 -0.072635,0.09621 -0.063892,0.06669 0.048128,-0.162504 0.1628105,-0.297749 0.2314687,-0.4527 0.055537,-0.125339 0.2028871,-0.545212 0.2338808,-0.631466 0.3839028,-1.468848 0.7100267,-2.951258 1.1051504,-4.417517 0.5035585,-1.739946 1.1081877,-3.446806 1.8222666,-5.110894 0.5030206,-1.21025 1.1488426,-2.345784 1.9127986,-3.407717 0.490076,-0.636918 1.066082,-1.198186 1.641422,-1.75636 0.567697,-0.529771 1.191627,-0.994546 1.822672,-1.445173 0.649666,-0.434141 1.317104,-0.836815 2.015747,-1.186789 0.604412,-0.317378 1.228923,-0.595485 1.854635,-0.868 0.718049,-0.321228 1.481295,-0.488047 2.254126,-0.60644 0.06829,-0.01046 -0.136842,0.01912 -0.205263,0.02869 0.506623,-0.139721 1.029584,-0.200166 1.552067,-0.240133 0.434247,-0.02649 0.869457,-0.02662 1.304327,-0.02697 0.363527,3.18e-4 0.727053,9.58e-4 1.09058,0.0013 0.486151,3.07e-4 0.972302,3.18e-4 1.458452,3.4e-4 0.561188,1.3e-5 1.122376,6e-6 1.683564,2e-6 0.426627,-3e-6 0.853254,-5e-6 1.279881,-5e-6 0.365216,-10e-7 0.730432,-10e-7 1.095648,-10e-7 0.472106,0 0.944212,0 1.416318,0 0.568243,0 1.136485,0 1.704728,0 0.26402,0 0.52804,0 0.79206,0 6.095748,0 6.095748,8.62069 0,8.62069 l 0,0 c -0.26402,0 -0.52804,0 -0.79206,0 -0.568243,0 -1.136485,0 -1.704728,0 -0.472106,0 -0.944212,0 -1.416319,0 -0.365211,0 -0.730422,0 -1.095633,0 -0.426612,1e-6 -0.853225,2e-6 -1.279837,5e-6 -0.561338,4e-6 -1.122676,1.2e-5 -1.684014,-10e-7 -0.488371,-2.3e-5 -0.976743,-3.4e-5 -1.465114,-3.43e-4 -0.359094,-2.94e-4 -0.718188,-9.08e-4 -1.077283,-0.0013 -0.239048,1.49e-4 -0.478139,-4.5e-5 -0.717118,0.0065 -0.05457,-0.0018 0.03698,-0.01191 0.05293,-0.02302 -0.11226,0.01814 -0.217913,0.07128 -0.331855,0.0791 -0.178728,0.03403 -0.357456,0.06805 -0.536184,0.10208 0.04897,-0.01494 0.220042,-0.08421 0.03692,-0.02559 -0.496184,0.210039 -0.984765,0.434715 -1.461067,0.686259 -0.273479,0.127162 -0.578854,0.335677 -0.876339,0.512086 -0.269909,0.170764 -0.510909,0.388971 -0.769745,0.574685 -0.250499,0.242916 -0.500583,0.486251 -0.743763,0.73652 -0.115677,0.03175 -0.01769,-2.24e-4 -0.179185,0.254036 -0.281879,0.4438 -0.508196,0.918495 -0.717797,1.400223 -0.558373,1.284924 -1.016097,2.608336 -1.417167,3.950712 -0.469614,1.721202 -0.797328,3.47952 -1.349408,5.177628 -0.524707,1.380079 -1.12525,2.749337 -2.141515,3.846077 -4.3103507,4.310363 -10.4060988,-1.785385 -6.095754,-6.09573 z"
     inkscape:connector-curvature="0" />
  <path
     style="fill:#0000ff;stroke:#00097d;stroke-opacity:1"
     id="path3051"
     d="m 31.975945,4.6416428 c 0.691233,0.4716688 1.336178,1.0056678 1.997658,1.5172382 0.748015,0.5337792 1.500272,1.0608484 2.243556,1.6013638 0.591063,0.4029014 1.16405,0.831497 1.754145,1.2357199 0.394462,0.283319 0.820777,0.5081217 1.245267,0.7405745 0.496954,0.2371523 0.645108,0.3054588 1.056635,0.5042258 0.436825,0.227862 0.686425,0.367944 1.129781,0.626419 0.342676,0.218269 0.359745,0.217262 0.69204,0.40197 0.594997,0.327644 1.256516,0.714823 1.711347,1.267878 0.279087,0.339359 0.49003,0.729443 0.735045,1.094165 0.121822,0.354896 0.302801,0.694735 0.365467,1.064687 0.20161,1.190226 0.07062,2.507501 -0.632192,3.529839 -0.157711,0.229411 -0.326065,0.451321 -0.489098,0.676982 0.06553,-0.06309 -0.142102,0.188635 -0.109562,0.139323 0.03995,-0.06054 0.08029,-0.122789 0.134253,-0.171262 0.03842,-0.03451 -0.05706,0.08612 -0.08662,0.128476 -0.271329,0.388758 -0.180609,0.254213 -0.589962,0.747471 -0.406715,0.40725 -0.262576,0.276867 -0.609744,0.723588 -0.396339,0.521139 -0.84057,1.001729 -1.271896,1.493535 -0.48192,0.551542 -0.967793,1.097691 -1.481182,1.62039 -0.139723,0.171658 -0.300787,0.326102 -0.438789,0.499069 -0.02855,0.03579 0.05207,-0.111006 0.09602,-0.09819 0.04041,0.01178 -0.04487,0.07125 -0.06814,0.106319 -0.05144,0.07751 -0.103994,0.154273 -0.155991,0.231409 -0.265099,0.48806 -0.613318,0.92287 -0.945189,1.365742 -0.285959,0.411669 -0.634244,0.860728 -0.952204,1.290378 -0.368007,0.514349 -0.753253,1.012556 -1.170218,1.488454 -0.05172,0.16285 -0.233408,0.247544 -0.34945,0.371936 -0.0233,0.02498 0.05128,-0.04546 0.07349,-0.07141 0.09605,-0.112267 0.157168,-0.262131 0.280916,-0.342846 0.01303,-0.0085 -0.426564,0.567968 -0.129291,0.177403 -1.173576,1.474286 0.580779,-0.672131 -0.660925,0.81912 -0.02985,0.03584 0.0567,-0.07611 0.09498,-0.102764 0.02971,-0.02069 -0.09034,0.113178 -0.06848,0.08431 0.05191,-0.06856 0.105774,-0.135616 0.158662,-0.203424 -0.965838,1.246812 0.550028,-0.660602 -0.573804,0.745824 -3.97556,4.620937 -10.510553,-1.001354 -6.534992,-5.622292 l 0,0 c -0.547744,0.737875 0.34201,-0.477469 -0.0556,0.08192 0.03975,-0.0552 0.551922,-0.792112 0.671862,-0.860074 0.101557,-0.05755 -0.193748,0.386977 -0.219233,0.273065 -0.0024,-0.01056 0.5484,-0.703357 0.02766,-0.01699 0.239592,-0.339605 0.407196,-0.62804 0.863289,-1.081771 0.0479,-0.04765 -0.177582,0.203721 -0.133348,0.152651 0.07058,-0.08149 0.141591,-0.162604 0.212387,-0.243906 -0.03009,0.03891 -0.121293,0.154896 -0.09026,0.116733 0.193262,-0.237679 0.381391,-0.496837 0.673261,-0.894665 0.342898,-0.463182 0.689771,-0.898578 1.003894,-1.359486 0.242219,-0.31906 0.488201,-0.628051 0.674659,-0.986954 0.470976,-0.698483 0.975761,-1.37015 1.572251,-1.968104 0.398577,-0.403213 0.76829,-0.83028 1.142553,-1.256042 0.3218,-0.366924 0.659658,-0.716098 0.951889,-1.106472 0.333447,-0.426683 0.662154,-0.849322 1.039464,-1.239011 0.01601,-0.01654 -0.02896,0.03578 -0.04344,0.05367 -0.37908,0.50488 -0.108093,0.136254 -0.04933,0.0534 0.164844,-0.23241 0.325721,-0.458221 0.508548,-0.67528 -0.113002,0.165954 -0.22681,0.331361 -0.339006,0.49786 -0.512395,0.760396 -0.49723,1.901948 -0.339017,2.739871 0.05661,0.299807 0.212388,0.572056 0.318582,0.858084 0.215303,0.304818 0.403676,0.630564 0.645908,0.914453 0.502118,0.588468 0.374164,0.308127 0.789928,0.624008 0.06517,0.04951 -0.150925,-0.0698 -0.211289,-0.125068 -0.0068,-0.0062 0.792928,0.40925 -0.164838,-0.08703 -0.354432,-0.204383 -0.715405,-0.397315 -1.058956,-0.619853 0.06985,0.03666 0.279745,0.146015 0.209561,0.109989 -0.18722,-0.0961 -0.437173,-0.228813 -0.623076,-0.331351 -0.02333,-0.01287 0.09585,0.0466 0.07226,0.0342 -0.06073,-0.03194 -0.122497,-0.06189 -0.183745,-0.09283 0.06445,0.02769 0.25741,0.111632 0.193342,0.08307 -0.491771,-0.219203 -0.93704,-0.427284 -1.418532,-0.677386 -0.678876,-0.373718 -1.352745,-0.75402 -1.988639,-1.198996 -0.648765,-0.44856 -1.285205,-0.914492 -1.934,-1.363051 -0.812601,-0.591125 -1.64018,-1.160527 -2.449602,-1.755987 -0.333506,-0.25834 -0.667096,-0.516859 -0.998946,-0.777316 -0.06205,-0.0487 -0.122068,-0.09997 -0.184129,-0.148669 -0.0785,-0.0616 -0.323082,-0.130814 -0.237536,-0.182185 0.08922,-0.05358 0.176261,0.110705 0.264391,0.166058 C 22.313584,8.8975827 26.748893,1.5054023 31.975954,4.6416388 z"
     inkscape:connector-curvature="0" />
</svg>
