<?xml version="1.0" encoding="UTF-8" standalone="no"?>
<!-- Created with Inkscape (http://www.inkscape.org/) -->

<svg
   xmlns:dc="http://purl.org/dc/elements/1.1/"
   xmlns:cc="http://creativecommons.org/ns#"
   xmlns:rdf="http://www.w3.org/1999/02/22-rdf-syntax-ns#"
   xmlns:svg="http://www.w3.org/2000/svg"
   xmlns="http://www.w3.org/2000/svg"
   xmlns:sodipodi="http://sodipodi.sourceforge.net/DTD/sodipodi-0.dtd"
   xmlns:inkscape="http://www.inkscape.org/namespaces/inkscape"
   id="svg3074"
   version="1.1"
   inkscape:version="0.47 r22583"
   width="50"
   height="45"
   sodipodi:docname="delete_all.svg">
  <metadata
     id="metadata3080">
    <rdf:RDF>
      <cc:Work
         rdf:about="">
        <dc:format>image/svg+xml</dc:format>
        <dc:type
           rdf:resource="http://purl.org/dc/dcmitype/StillImage" />
        <dc:title />
      </cc:Work>
    </rdf:RDF>
  </metadata>
  <defs
     id="defs3078">
    <inkscape:perspective
       sodipodi:type="inkscape:persp3d"
       inkscape:vp_x="0 : 22.5 : 1"
       inkscape:vp_y="0 : 1000 : 0"
       inkscape:vp_z="50 : 22.5 : 1"
       inkscape:persp3d-origin="25 : 15 : 1"
       id="perspective8" />
    <inkscape:perspective
       id="perspective2822"
       inkscape:persp3d-origin="0.5 : 0.33333333 : 1"
       inkscape:vp_z="1 : 0.5 : 1"
       inkscape:vp_y="0 : 1000 : 0"
       inkscape:vp_x="0 : 0.5 : 1"
       sodipodi:type="inkscape:persp3d" />
    <inkscape:perspective
       id="perspective2822-4"
       inkscape:persp3d-origin="0.5 : 0.33333333 : 1"
       inkscape:vp_z="1 : 0.5 : 1"
       inkscape:vp_y="0 : 1000 : 0"
       inkscape:vp_x="0 : 0.5 : 1"
       sodipodi:type="inkscape:persp3d" />
    <inkscape:perspective
       id="perspective2858"
       inkscape:persp3d-origin="0.5 : 0.33333333 : 1"
       inkscape:vp_z="1 : 0.5 : 1"
       inkscape:vp_y="0 : 1000 : 0"
       inkscape:vp_x="0 : 0.5 : 1"
       sodipodi:type="inkscape:persp3d" />
    <inkscape:perspective
       id="perspective2858-6"
       inkscape:persp3d-origin="0.5 : 0.33333333 : 1"
       inkscape:vp_z="1 : 0.5 : 1"
       inkscape:vp_y="0 : 1000 : 0"
       inkscape:vp_x="0 : 0.5 : 1"
       sodipodi:type="inkscape:persp3d" />
    <inkscape:perspective
       id="perspective2858-2"
       inkscape:persp3d-origin="0.5 : 0.33333333 : 1"
       inkscape:vp_z="1 : 0.5 : 1"
       inkscape:vp_y="0 : 1000 : 0"
       inkscape:vp_x="0 : 0.5 : 1"
       sodipodi:type="inkscape:persp3d" />
  </defs>
  <sodipodi:namedview
     pagecolor="#ffffff"
     bordercolor="#666666"
     borderopacity="1"
     objecttolerance="10"
     gridtolerance="10"
     guidetolerance="10"
     inkscape:pageopacity="0"
     inkscape:pageshadow="2"
     inkscape:window-width="1246"
     inkscape:window-height="960"
     id="namedview3076"
     showgrid="false"
     inkscape:zoom="5.8"
     inkscape:cx="-6.4655172"
     inkscape:cy="20.862069"
     inkscape:window-x="0"
     inkscape:window-y="0"
     inkscape:window-maximized="0"
     inkscape:current-layer="svg3074" />
  <path
     style="fill:#f20000;fill-opacity:1;stroke:#c40000;stroke-width:1.03474998;stroke-linecap:butt;stroke-linejoin:miter;stroke-miterlimit:4;stroke-opacity:1;stroke-dasharray:none"
     d="m 10.081688,6.206863 c 0.789535,1.29172 -0.18612,-0.319728 0.402641,0.69168 0.07801,0.13401 0.164619,0.260329 0.241585,0.395245 0.111003,0.194578 0.201194,0.407401 0.322113,0.592868 0.20192,0.309705 0.434887,0.587105 0.644226,0.889302 0.247082,0.356682 0.485039,0.722752 0.724754,1.086925 0.323991,0.492204 0.628635,1.004044 0.966339,1.48217 0.937123,1.326792 1.271458,1.614251 2.25479,2.865528 0.976049,1.242007 1.879727,2.563679 2.899017,3.75483 0.574283,0.671113 0.768862,0.892447 1.368979,1.383359 0.130232,0.106533 0.275277,0.184804 0.402641,0.296433 0.06178,0.05415 0.09789,0.145947 0.161057,0.197623 0.02233,0.01827 0.08053,-0.03294 0.08053,0 0,0.03294 -0.05368,0 -0.08053,0"
     id="path3828-4"
     inkscape:connector-curvature="0" />
  <path
     style="fill:#f20a00;fill-opacity:1;stroke:#cb0000;stroke-width:1.03474998;stroke-linecap:butt;stroke-linejoin:miter;stroke-miterlimit:4;stroke-opacity:1;stroke-dasharray:none"
     d="m 21.999866,6.108052 c -0.377284,0.385786 -0.391936,0.436441 -0.724754,0.691679 -0.401257,0.307724 -0.623478,0.435033 -1.046867,0.790491 -0.30132,0.252974 -0.589518,0.528726 -0.885811,0.790491 -0.806599,0.712605 -1.408679,1.204576 -2.174262,1.976226 -1.61e-4,1.63e-4 -2.41508,2.568288 -2.415847,2.569094 -0.347067,0.365028 -0.703703,0.716379 -1.046866,1.086925 -0.328038,0.354214 -0.629453,0.745443 -0.966339,1.086925 -0.281479,0.285318 -0.607626,0.500348 -0.88581,0.79049 -0.260319,0.271508 -0.475964,0.601983 -0.724754,0.889302 -0.207787,0.239964 -0.428596,0.462371 -0.644227,0.691679 -0.187016,0.19888 -0.388704,0.378145 -0.563697,0.592869 -1.515109,1.859098 0.460957,-0.462908 -0.644226,1.086924 -0.08838,0.123938 -0.227209,0.179984 -0.322113,0.296434 -0.31428,0.385634 0.01864,0.05306 -0.08053,0.296434 -0.01698,0.04167 -0.05368,0.06587 -0.08053,0.09881"
     id="path3864-0"
     inkscape:connector-curvature="0" />
  <path
     style="fill:#f20000;fill-opacity:1;stroke:#c40000;stroke-width:1.03474998;stroke-linecap:butt;stroke-linejoin:miter;stroke-miterlimit:4;stroke-opacity:1;stroke-dasharray:none"
     d="m 29.443759,6.534449 c 0.789535,1.29172 -0.18612,-0.319728 0.402641,0.69168 0.07801,0.13401 0.164619,0.260329 0.241585,0.395245 0.111003,0.194578 0.201194,0.407401 0.322113,0.592868 0.20192,0.309705 0.434887,0.587105 0.644226,0.889302 0.247082,0.356682 0.485039,0.722752 0.724754,1.086925 0.323991,0.492204 0.628635,1.004044 0.966339,1.48217 0.937123,1.326792 1.271458,1.614251 2.25479,2.865528 0.976049,1.242007 1.879727,2.563679 2.899017,3.75483 0.574283,0.671113 0.768862,0.892447 1.368979,1.383359 0.130232,0.106533 0.275277,0.184804 0.402641,0.296433 0.06178,0.05415 0.09789,0.145947 0.161057,0.197623 0.02233,0.01827 0.08053,-0.03294 0.08053,0 0,0.03294 -0.05368,0 -0.08053,0"
     id="path3828-4-3"
     inkscape:connector-curvature="0" />
  <path
     style="fill:#f20a00;fill-opacity:1;stroke:#cb0000;stroke-width:1.03474998;stroke-linecap:butt;stroke-linejoin:miter;stroke-miterlimit:4;stroke-opacity:1;stroke-dasharray:none"
     d="m 41.361937,6.435638 c -0.377284,0.385786 -0.391936,0.436441 -0.724754,0.691679 -0.401257,0.307724 -0.623478,0.435033 -1.046867,0.790491 -0.30132,0.252974 -0.589518,0.528726 -0.885811,0.790491 -0.806599,0.712605 -1.408679,1.204576 -2.174262,1.976226 -1.61e-4,1.63e-4 -2.41508,2.568288 -2.415847,2.569094 -0.347067,0.365028 -0.703703,0.716379 -1.046866,1.086925 -0.328038,0.354214 -0.629453,0.745443 -0.966339,1.086925 -0.281479,0.285318 -0.607626,0.500348 -0.88581,0.79049 -0.260319,0.271508 -0.475964,0.601983 -0.724754,0.889302 -0.207787,0.239964 -0.428596,0.462371 -0.644227,0.691679 -0.187016,0.19888 -0.388704,0.378145 -0.563697,0.592869 -1.515109,1.859098 0.460957,-0.462908 -0.644226,1.086924 -0.08838,0.123938 -0.227209,0.179984 -0.322113,0.296434 -0.31428,0.385634 0.01864,0.05306 -0.08053,0.296434 -0.01698,0.04167 -0.05368,0.06587 -0.08053,0.09881"
     id="path3864-0-6"
     inkscape:connector-curvature="0" />
  <path
     style="fill:#f20000;fill-opacity:1;stroke:#c40000;stroke-width:1.03474998;stroke-linecap:butt;stroke-linejoin:miter;stroke-miterlimit:4;stroke-opacity:1;stroke-dasharray:none"
     d="m 8.547207,24.810311 c 0.789535,1.29172 -0.18612,-0.319728 0.402641,0.69168 0.07801,0.13401 0.164619,0.260329 0.241585,0.395245 0.111003,0.194578 0.201194,0.407401 0.322113,0.592868 0.20192,0.309705 0.434887,0.587105 0.644226,0.889302 0.247082,0.356682 0.485039,0.722752 0.724754,1.086925 0.323991,0.492204 0.628635,1.004044 0.966339,1.48217 0.937123,1.326792 1.271458,1.614251 2.25479,2.865528 0.976049,1.242007 1.879727,2.563679 2.899017,3.75483 0.574283,0.671113 0.768862,0.892447 1.368979,1.383359 0.130232,0.106533 0.275277,0.184804 0.402641,0.296433 0.06178,0.05415 0.09789,0.145947 0.161057,0.197623 0.02233,0.01827 0.08053,-0.03294 0.08053,0 0,0.03294 -0.05368,0 -0.08053,0"
     id="path3828-4-1"
     inkscape:connector-curvature="0" />
  <path
     style="fill:#f20a00;fill-opacity:1;stroke:#cb0000;stroke-width:1.03474998;stroke-linecap:butt;stroke-linejoin:miter;stroke-miterlimit:4;stroke-opacity:1;stroke-dasharray:none"
     d="m 20.465385,24.7115 c -0.377284,0.385786 -0.391936,0.436441 -0.724754,0.691679 -0.401257,0.307724 -0.623478,0.435033 -1.046867,0.790491 -0.30132,0.252974 -0.589518,0.528726 -0.885811,0.790491 -0.806599,0.712605 -1.408679,1.204576 -2.174262,1.976226 -1.61e-4,1.63e-4 -2.41508,2.568288 -2.415847,2.569094 -0.347067,0.365028 -0.703703,0.716379 -1.046866,1.086925 -0.328038,0.354214 -0.629453,0.745443 -0.966339,1.086925 -0.281479,0.285318 -0.607626,0.500348 -0.88581,0.79049 -0.260319,0.271508 -0.475964,0.601983 -0.724754,0.889302 -0.207787,0.239964 -0.428596,0.462371 -0.644227,0.691679 -0.187016,0.19888 -0.388704,0.378145 -0.563697,0.592869 -1.515109,1.859098 0.460957,-0.462908 -0.644226,1.086924 -0.08838,0.123938 -0.227209,0.179984 -0.322113,0.296434 -0.31428,0.385634 0.01864,0.05306 -0.08053,0.296434 -0.01698,0.04167 -0.05368,0.06587 -0.08053,0.09881"
     id="path3864-0-9"
     inkscape:connector-curvature="0" />
  <path
     style="fill:#f20000;fill-opacity:1;stroke:#c40000;stroke-width:1.03474998;stroke-linecap:butt;stroke-linejoin:miter;stroke-miterlimit:4;stroke-opacity:1;stroke-dasharray:none"
     d="m 27.512725,24.637897 c 0.789535,1.29172 -0.18612,-0.319728 0.402641,0.69168 0.07801,0.13401 0.164619,0.260329 0.241585,0.395245 0.111003,0.194578 0.201194,0.407401 0.322113,0.592868 0.20192,0.309705 0.434887,0.587105 0.644226,0.889302 0.247082,0.356682 0.485039,0.722752 0.724754,1.086925 0.323991,0.492204 0.628635,1.004044 0.966339,1.48217 0.937123,1.326792 1.271458,1.614251 2.25479,2.865528 0.976049,1.242007 1.879727,2.563679 2.899017,3.75483 0.574283,0.671113 0.768862,0.892447 1.368979,1.383359 0.130232,0.106533 0.275277,0.184804 0.402641,0.296433 0.06178,0.05415 0.09789,0.145947 0.161057,0.197623 0.02233,0.01827 0.08053,-0.03294 0.08053,0 0,0.03294 -0.05368,0 -0.08053,0"
     id="path3828-4-7"
     inkscape:connector-curvature="0" />
  <path
     style="fill:#f20a00;fill-opacity:1;stroke:#cb0000;stroke-width:1.03474998;stroke-linecap:butt;stroke-linejoin:miter;stroke-miterlimit:4;stroke-opacity:1;stroke-dasharray:none"
     d="m 39.430903,24.539086 c -0.377284,0.385786 -0.391936,0.436441 -0.724754,0.691679 -0.401257,0.307724 -0.623478,0.435033 -1.046867,0.790491 -0.30132,0.252974 -0.589518,0.528726 -0.885811,0.790491 -0.806599,0.712605 -1.408679,1.204576 -2.174262,1.976226 -1.61e-4,1.63e-4 -2.41508,2.568288 -2.415847,2.569094 -0.347067,0.365028 -0.703703,0.716379 -1.046866,1.086925 -0.328038,0.354214 -0.629453,0.745443 -0.966339,1.086925 -0.281479,0.285318 -0.607626,0.500348 -0.88581,0.79049 -0.260319,0.271508 -0.475964,0.601983 -0.724754,0.889302 -0.207787,0.239964 -0.428596,0.462371 -0.644227,0.691679 -0.187016,0.19888 -0.388704,0.378145 -0.563697,0.592869 -1.515109,1.859098 0.460957,-0.462908 -0.644226,1.086924 -0.08838,0.123938 -0.227209,0.179984 -0.322113,0.296434 -0.31428,0.385634 0.01864,0.05306 -0.08053,0.296434 -0.01698,0.04167 -0.05368,0.06587 -0.08053,0.09881"
     id="path3864-0-60"
     inkscape:connector-curvature="0" />
</svg>
